<svg width="441" height="38" viewBox="0 0 441 38" fill="none" xmlns="http://www.w3.org/2000/svg">
<g style="mix-blend-mode:multiply">
<rect y="17" width="21" height="21" fill="#D3ADF7"/>
<rect x="231" y="38" width="21" height="16" transform="rotate(180 231 38)" fill="#D3ADF7"/>
<rect x="63" y="11" width="21" height="27" fill="#722ED1"/>
<rect x="168" y="38" width="21" height="32" transform="rotate(180 168 38)" fill="#722ED1"/>
<rect x="21" y="14" width="21" height="24" fill="#B37FEB"/>
<rect x="210" y="38" width="21" height="21" transform="rotate(180 210 38)" fill="#B37FEB"/>
<rect x="84" y="14" width="21" height="24" fill="#531DAB"/>
<rect x="147" y="38" width="21" height="27" transform="rotate(180 147 38)" fill="#531DAB"/>
<rect x="42" y="6" width="21" height="32" fill="#9254DE"/>
<rect x="189" y="38" width="21" height="27" transform="rotate(180 189 38)" fill="#9254DE"/>
<rect x="105" width="21" height="38" fill="#391085"/>
</g>
<g style="mix-blend-mode:multiply">
<rect x="441" y="38" width="21" height="35" transform="rotate(180 441 38)" fill="#D3ADF7"/>
<rect x="273" y="3" width="21" height="35" fill="#722ED1"/>
<rect x="378" y="38" width="21" height="16" transform="rotate(180 378 38)" fill="#722ED1"/>
<rect x="231" y="17" width="21" height="21" fill="#B37FEB"/>
<rect x="420" y="38" width="21" height="27" transform="rotate(180 420 38)" fill="#B37FEB"/>
<rect x="294" y="9" width="21" height="29" fill="#531DAB"/>
<rect x="357" y="38" width="21" height="9" transform="rotate(180 357 38)" fill="#531DAB"/>
<rect x="252" y="11" width="21" height="27" fill="#9254DE"/>
<rect x="399" y="38" width="21" height="21" transform="rotate(180 399 38)" fill="#9254DE"/>
<rect x="315" y="14" width="21" height="24" fill="#391085"/>
</g>
</svg>
