<svg width="256" height="256" viewBox="0 0 256 256" fill="none" xmlns="http://www.w3.org/2000/svg">
<g clip-path="url(#clip0)">
<circle cx="128" cy="128" r="126.175" transform="rotate(-5.6583 128 128)" fill="#F9FAFB"/>
<path d="M208.101 225.488C188.82 241.33 165.274 251.099 140.44 253.56C107.14 256.859 73.8924 246.795 48.0124 225.581C22.1324 204.367 5.7396 173.741 2.44025 140.44C-0.0202017 115.607 4.93856 90.6016 16.6895 68.5865C28.4403 46.5713 46.4556 28.5351 68.4571 16.7587C90.4585 4.98217 115.458 -0.0056443 140.294 2.42593C165.131 4.85751 188.688 14.5993 207.988 30.4193L182.537 61.4677C169.378 50.6813 153.316 44.0392 136.382 42.3813C119.449 40.7234 102.404 44.1242 87.4025 52.1536C72.4015 60.183 60.1184 72.4805 52.1064 87.4908C44.0945 102.501 40.7135 119.55 42.3911 136.482C44.6406 159.187 55.8175 180.068 73.463 194.532C91.1085 208.996 113.777 215.859 136.482 213.609C153.414 211.931 169.468 205.271 182.614 194.469L208.101 225.488Z" fill="url(#paint0_linear)"/>
<path d="M128 232C185.438 232 232 185.438 232 128C232 70.5624 185.438 24 128 24C70.5624 24 24 70.5624 24 128C24 185.438 70.5624 232 128 232Z" fill="white"/>
<path d="M184.635 111.245H172.893C166.429 93.3024 149.047 81 126.125 81H88.4258V111.245H75.3318V122.096H88.4258V133.475H75.3318V144.326H88.4258V174.208H126.125C148.783 174.208 166.033 162.005 172.663 144.326H184.635V133.475H175.301C175.532 131.562 175.664 129.583 175.664 127.604V127.34C175.664 125.559 175.565 123.811 175.4 122.096H184.668V111.245H184.635ZM98.9801 90.6638H126.125C142.946 90.6638 155.446 98.9424 161.218 111.212H98.9801V90.6638V90.6638ZM126.125 164.445H98.9801V144.293H161.152C155.347 156.365 142.88 164.445 126.125 164.445ZM164.747 127.835C164.747 129.748 164.615 131.628 164.351 133.442H98.9801V122.063H164.384C164.615 123.844 164.747 125.691 164.747 127.571V127.835Z" fill="url(#paint1_linear)"/>
</g>
<defs>
<linearGradient id="paint0_linear" x1="96.4564" y1="14.9684" x2="136.022" y2="234.327" gradientUnits="userSpaceOnUse">
<stop stop-color="#27D3A2"/>
<stop offset="1" stop-color="#9388FD"/>
</linearGradient>
<linearGradient id="paint1_linear" x1="130" y1="67.7955" x2="130" y2="183.995" gradientUnits="userSpaceOnUse">
<stop stop-color="#283947"/>
<stop offset="1" stop-color="#657786"/>
</linearGradient>
<clipPath id="clip0">
<rect width="256" height="256" fill="white"/>
</clipPath>
</defs>
</svg>
