<svg xmlns="http://www.w3.org/2000/svg" width="32" height="32" viewBox="0 0 32 32">
  <g fill="none" fill-rule="evenodd">
    <path fill="#69E2DC" d="M16,-6.82121026e-15 C7.16501306,-6.82121026e-15 0,7.16501306 0,16 C0,24.8383991 7.16501306,32 16,32 C24.8383991,32 32,24.8349857 32,16 C32.0034121,7.16501306 24.8383991,-6.82121026e-15 16,-6.82121026e-15 Z"/>
    <path fill="#FFF" d="M17.2885327,16.7534927 L22.9000525,22.3650125 C23.3582924,22.8232525 23.2998391,23.5716258 22.7899725,23.9701324 C21.0065059,25.373439 18.8031993,26.135039 16.5350394,26.1316371 C10.5514663,26.1316371 5.78175978,20.9484792 6.46485309,14.8283728 C6.98837307,10.1418663 10.8066129,6.37823976 15.4982394,5.91487977 C18.274986,5.64010645 20.8550392,6.48661309 22.8317858,8.05674636 C23.3215991,8.44671968 23.3433591,9.18826632 22.9000525,9.6298663 L17.2851193,15.2435194 C16.8699727,15.6616527 16.8716794,16.3366394 17.2885327,16.7534927 Z"/>
  </g>
</svg>
