<svg width="27" height="31" xmlns="http://www.w3.org/2000/svg" xmlns:xlink="http://www.w3.org/1999/xlink"><defs><linearGradient x1="50%" y1="0%" x2="50%" y2="100%" id="d"><stop stop-color="#96CAFF" offset="0%"/><stop stop-color="#0052FE" offset="100%"/></linearGradient><linearGradient x1="51.885%" y1="13.014%" x2="51.166%" y2="86.193%" id="e"><stop stop-color="#96CAFF" offset="0%"/><stop stop-color="#0300CC" offset="100%"/></linearGradient><linearGradient x1="50%" y1="31.836%" x2="50%" y2="100%" id="g"><stop stop-color="#7FA9FF" offset="0%"/><stop stop-color="#021580" offset="100%"/></linearGradient><linearGradient x1="50%" y1="0%" x2="50%" y2="100%" id="h"><stop stop-color="#96CAFF" offset="0%"/><stop stop-color="#0022E6" offset="100%"/></linearGradient><path d="M19.604 0v11.075a10.555 10.555 0 00-2.822-.382c-5.823 0-10.544 4.721-10.544 10.545a10.53 10.53 0 004.256 8.465H0V0h19.604z" id="a"/><path d="M9.272.051C9.375 2.791 7.3 6.784 3.049 12.03c-7.067 9.086-.577 17.63 6.562 17.63 7.138 0 13.643-7.57 7.547-16.657-1.578-2.583-5.028-6.533-5.483-7.957-1.604 3.09-.961 6.117-2.064 8.644-.978 2.573 3.225 6.293.178 6.087-2.327-.362-2.233-3.267-2.038-3.948C9.976 8.123 10.483 2.864 9.271.05z" id="c"/></defs><g fill="none" fill-rule="evenodd"><mask id="b" fill="#fff"><use xlink:href="#a"/></mask><g mask="url(#b)"><mask id="f" fill="#fff"><use xlink:href="#c"/></mask><use fill="url(#d)" xlink:href="#c"/><path d="M5.555 14.842c-2.593 5.696 0 13.209 4.056 14.817 4.055 1.608 16.351-4.977 7.547-16.657-1.578-2.583-5.028-6.533-5.483-7.957-.629.716-1.545 4.294-.535 7.957 1.01 3.663 1.696 6.98-1.351 6.774-2.327-.362-2.233-3.267-2.038-3.948 3.337-11.557 4.182-8.853-2.196-.986z" fill="url(#e)" mask="url(#f)"/><path d="M11.98 4.393c-.87 1.5-.7 3.889.514 7.167 1.82 4.918 5.183 11.144-.513 13.521-3.53 1.227-7.356-2.792-4.774-11.86 1.721-6.044 3.312-8.987 4.774-8.828z" fill="url(#g)" mask="url(#f)"/><path d="M9.213-.294c.143 4.427-.874 8.53-3.052 12.309-3.266 5.667-7.198 14.52.942 17.308 5.426 1.858 8.176 1.392 8.248-1.397-3.932 1.818-6.682.655-8.248-3.49-.897-2.072.343-8.015.648-8.608.204-.396 1.303-4.643 3.298-12.742L9.213-.294z" fill="url(#h)" mask="url(#f)"/></g><g fill-rule="nonzero"><path d="M25.23 21.396c.008 4.678-3.81 8.631-8.69 8.587-4.787-.045-8.625-3.996-8.518-8.812.103-4.614 3.913-8.492 8.782-8.4 4.692.09 8.448 3.94 8.426 8.625z" fill="#3E79FE"/><path d="M17.498 19.681l1.999.292c.114.016.229.035.343.047.062.007.07.03.054.087-.048.164-.093.33-.13.497-.019.084-.06.096-.135.084-.492-.077-.985-.152-1.478-.227-.22-.034-.441-.066-.662-.101-.06-.01-.091-.002-.104.071-.072.408-.151.815-.23 1.223-.016.077.01.105.087.115l2.286.315c.084.012.131.024.095.13-.052.15-.086.308-.125.462-.017.065-.033.096-.119.084-.76-.113-1.523-.216-2.284-.328-.083-.012-.1.014-.12.083-.127.439-.198.894-.35 1.327-.245.7-.483 1.403-.798 2.075-.454.968-1.222 1.466-2.295 1.472a1.47 1.47 0 01-.985-.341c-.252-.212-.283-.49-.093-.754a.249.249 0 01.234-.115c.187.012.352.058.458.23.054.089.12.17.171.26.232.396.65.476 1.002.18.268-.227.445-.52.58-.84.178-.42.258-.87.37-1.31.19-.736.37-1.475.525-2.221.003-.016.01-.03.012-.046.028-.168.016-.186-.154-.212-.68-.104-1.363-.208-2.046-.308-.103-.015-.14-.049-.12-.156a4.86 4.86 0 00.062-.438c.008-.073.022-.097.108-.084.745.112 1.492.215 2.237.325.067.01.096.004.112-.073.082-.39.168-.779.264-1.165.024-.098-.009-.114-.088-.126-.426-.065-.851-.132-1.276-.199-.347-.055-.693-.111-1.04-.164-.056-.008-.086-.019-.075-.087.027-.185.05-.372.069-.558.006-.06.026-.082.09-.072.777.108 1.555.213 2.333.32.188.027.185.03.243-.154.198-.626.345-1.27.602-1.877.278-.657.657-1.248 1.253-1.66.633-.437 1.325-.512 2.045-.22.181.074.319.212.437.365.17.218.028.682-.224.74-.14.033-.26-.019-.366-.105-.167-.137-.295-.313-.434-.477-.282-.333-.645-.358-.951-.047a2.436 2.436 0 00-.635 1.041 1433.4 1433.4 0 01-.743 2.573.704.704 0 01-.011.067z" fill="#FEFEFE"/></g></g></svg>