<svg width="25" height="24" viewBox="0 0 25 24" fill="none" xmlns="http://www.w3.org/2000/svg">
<path d="M20.75 3.375H13.625C13.4187 3.375 13.25 3.54375 13.25 3.75V10.875C13.25 11.0813 13.4187 11.25 13.625 11.25H20.75C20.9562 11.25 21.125 11.0813 21.125 10.875V3.75C21.125 3.54375 20.9562 3.375 20.75 3.375ZM19.5312 9.65625H14.8438V4.96875H19.5312V9.65625ZM11.375 12.75H4.25C4.04375 12.75 3.875 12.9187 3.875 13.125V20.25C3.875 20.4562 4.04375 20.625 4.25 20.625H11.375C11.5813 20.625 11.75 20.4562 11.75 20.25V13.125C11.75 12.9187 11.5813 12.75 11.375 12.75ZM10.1562 19.0312H5.46875V14.3438H10.1562V19.0312ZM11.375 3.375H4.25C4.04375 3.375 3.875 3.54375 3.875 3.75V10.875C3.875 11.0813 4.04375 11.25 4.25 11.25H11.375C11.5813 11.25 11.75 11.0813 11.75 10.875V3.75C11.75 3.54375 11.5813 3.375 11.375 3.375ZM10.1562 9.65625H5.46875V4.96875H10.1562V9.65625ZM20.75 12.75H13.625C13.4187 12.75 13.25 12.9187 13.25 13.125V20.25C13.25 20.4562 13.4187 20.625 13.625 20.625H20.75C20.9562 20.625 21.125 20.4562 21.125 20.25V13.125C21.125 12.9187 20.9562 12.75 20.75 12.75ZM19.5312 19.0312H14.8438V14.3438H19.5312V19.0312Z" fill="#1890FF"/>
<path d="M5.46875 4.96875H10.1562V9.65625H5.46875V4.96875ZM14.8438 4.96875H19.5312V9.65625H14.8438V4.96875ZM5.46875 14.3438H10.1562V19.0312H5.46875V14.3438ZM14.8438 14.3438H19.5312V19.0312H14.8438V14.3438Z" fill="#E6F7FF"/>
</svg>
