<svg width="25" height="24" viewBox="0 0 25 24" fill="none" xmlns="http://www.w3.org/2000/svg">
<path d="M21.125 2.625H3.875C3.46016 2.625 3.125 2.96016 3.125 3.375V20.625C3.125 21.0398 3.46016 21.375 3.875 21.375H21.125C21.5398 21.375 21.875 21.0398 21.875 20.625V3.375C21.875 2.96016 21.5398 2.625 21.125 2.625ZM20.1875 13.5H12.875V10.5H20.1875V13.5ZM20.1875 19.6875H4.8125V4.3125H20.1875V9H12.125C11.7102 9 11.375 9.33516 11.375 9.75V14.25C11.375 14.6648 11.7102 15 12.125 15H20.1875V19.6875ZM14.0938 12C14.0938 12.2486 14.1925 12.4871 14.3683 12.6629C14.5442 12.8387 14.7826 12.9375 15.0312 12.9375C15.2799 12.9375 15.5183 12.8387 15.6942 12.6629C15.87 12.4871 15.9688 12.2486 15.9688 12C15.9688 11.7514 15.87 11.5129 15.6942 11.3371C15.5183 11.1613 15.2799 11.0625 15.0312 11.0625C14.7826 11.0625 14.5442 11.1613 14.3683 11.3371C14.1925 11.5129 14.0938 11.7514 14.0938 12Z" fill="#252626"/>
</svg>
