<svg width="25" height="24" viewBox="0 0 25 24" fill="none" xmlns="http://www.w3.org/2000/svg">
<path d="M6.63477 14.5642C6.41445 14.9064 6.23633 15.2744 6.10742 15.6564H8.09492V13.0947C7.51367 13.4744 7.0168 13.9736 6.63477 14.5642ZM16.9074 13.0947V15.6564H18.8949C18.766 15.2744 18.5879 14.9064 18.3676 14.5642C17.9897 13.9771 17.4922 13.4763 16.9074 13.0947ZM15.4074 7.47205L12.5012 4.02673L9.59492 7.47205V15.6564H15.4074V7.47205ZM12.5012 10.5002C12.2068 10.4942 11.9265 10.373 11.7204 10.1627C11.5143 9.95235 11.3989 9.66962 11.3989 9.37517C11.3989 9.08072 11.5143 8.798 11.7204 8.58767C11.9265 8.37735 12.2068 8.25618 12.5012 8.25017C12.7956 8.25618 13.0759 8.37735 13.2819 8.58767C13.488 8.798 13.6034 9.08072 13.6034 9.37517C13.6034 9.66962 13.488 9.95235 13.2819 10.1627C13.0759 10.373 12.7956 10.4942 12.5012 10.5002Z" fill="#1890FF"/>
<path d="M20.75 17.25C20.75 14.6344 19.2172 12.375 17 11.3227V7.43672C17 7.08281 16.8758 6.74063 16.6461 6.47109L13.0742 2.23594C12.9242 2.05781 12.7109 1.96875 12.5 1.96875C12.2891 1.96875 12.0758 2.05781 11.9258 2.23594L8.35391 6.47109C8.12578 6.74118 8.00043 7.08318 8 7.43672V11.3227C5.78281 12.375 4.25 14.6344 4.25 17.25H7.91797C7.86406 17.4187 7.83594 17.6016 7.83594 17.8078C7.83594 18.3258 8.01406 18.832 8.3375 19.2328C8.6015 19.5606 8.95115 19.8088 9.34766 19.95C9.88906 21.2156 11.1195 22.0312 12.5 22.0312C13.182 22.0312 13.843 21.8297 14.4078 21.45C14.9609 21.0797 15.3898 20.5617 15.65 19.95C16.0463 19.8097 16.396 19.5623 16.6602 19.2352C16.984 18.8307 17.1609 18.3283 17.1617 17.8102C17.1617 17.6133 17.1359 17.4258 17.0891 17.2523L20.75 17.25ZM8.09375 15.6562H6.10625C6.23516 15.2742 6.41328 14.9063 6.63359 14.5641C7.01563 13.9734 7.5125 13.4742 8.09375 13.0945V15.6562ZM9.59375 11.3227V7.47187L12.5 4.02656L15.4062 7.47187V15.6562H9.59375V11.3227ZM15.2211 18.3797C15.0992 18.45 14.9586 18.4781 14.8203 18.4594L14.3633 18.4031L14.2977 18.8578C14.1711 19.7461 13.3977 20.4164 12.5 20.4164C11.6023 20.4164 10.8289 19.7461 10.7023 18.8578L10.6367 18.4008L10.1797 18.4594C10.0407 18.4759 9.90017 18.4472 9.77891 18.3773C9.575 18.2602 9.44844 18.0422 9.44844 17.8055C9.44844 17.557 9.58672 17.3508 9.79062 17.2477H15.2117C15.418 17.3531 15.5539 17.5594 15.5539 17.8055C15.5516 18.0445 15.425 18.2648 15.2211 18.3797ZM16.9062 15.6562V13.0945C17.491 13.4761 17.9886 13.9769 18.3664 14.5641C18.5867 14.9063 18.7648 15.2742 18.8937 15.6562H16.9062Z" fill="white"/>
<path d="M11.375 9.375C11.375 9.67337 11.4935 9.95952 11.7045 10.1705C11.9155 10.3815 12.2016 10.5 12.5 10.5C12.7984 10.5 13.0845 10.3815 13.2955 10.1705C13.5065 9.95952 13.625 9.67337 13.625 9.375C13.625 9.07663 13.5065 8.79048 13.2955 8.5795C13.0845 8.36853 12.7984 8.25 12.5 8.25C12.2016 8.25 11.9155 8.36853 11.7045 8.5795C11.4935 8.79048 11.375 9.07663 11.375 9.375Z" fill="white"/>
</svg>
