<svg width="24" height="24" viewBox="0 0 24 24" fill="none" xmlns="http://www.w3.org/2000/svg">
<path d="M9.375 7.44595H11.107V15.3749C11.107 15.478 11.1914 15.5624 11.2945 15.5624H12.7008C12.8039 15.5624 12.8883 15.478 12.8883 15.3749V7.44595H14.625C14.782 7.44595 14.8687 7.26548 14.7727 7.1436L12.1477 3.82016C12.1301 3.79775 12.1077 3.77963 12.0821 3.76716C12.0565 3.7547 12.0285 3.74822 12 3.74822C11.9715 3.74822 11.9435 3.7547 11.9179 3.76716C11.8923 3.77963 11.8699 3.79775 11.8523 3.82016L9.22734 7.14126C9.13125 7.26548 9.21797 7.44595 9.375 7.44595ZM20.5781 14.6717H19.1719C19.0688 14.6717 18.9844 14.7561 18.9844 14.8592V18.4686H5.01562V14.8592C5.01562 14.7561 4.93125 14.6717 4.82812 14.6717H3.42188C3.31875 14.6717 3.23438 14.7561 3.23438 14.8592V19.4999C3.23438 19.9147 3.56953 20.2499 3.98438 20.2499H20.0156C20.4305 20.2499 20.7656 19.9147 20.7656 19.4999V14.8592C20.7656 14.7561 20.6812 14.6717 20.5781 14.6717Z" fill="#E6F7FF"/>
</svg>
