<svg width="24" height="24" viewBox="0 0 24 24" fill="none" xmlns="http://www.w3.org/2000/svg">
<path d="M0 4C0 1.79086 1.79086 0 4 0H20C22.2091 0 24 1.79086 24 4V20C24 22.2091 22.2091 24 20 24H4C1.79086 24 0 22.2091 0 20V4Z" fill="#373B42"/>
<path d="M20.625 2.625H3.375C2.96016 2.625 2.625 2.96016 2.625 3.375V20.625C2.625 21.0398 2.96016 21.375 3.375 21.375H20.625C21.0398 21.375 21.375 21.0398 21.375 20.625V3.375C21.375 2.96016 21.0398 2.625 20.625 2.625ZM19.6875 13.5H12.375V10.5H19.6875V13.5ZM19.6875 19.6875H4.3125V4.3125H19.6875V9H11.625C11.2102 9 10.875 9.33516 10.875 9.75V14.25C10.875 14.6648 11.2102 15 11.625 15H19.6875V19.6875ZM13.5938 12C13.5938 12.2486 13.6925 12.4871 13.8683 12.6629C14.0442 12.8387 14.2826 12.9375 14.5312 12.9375C14.7799 12.9375 15.0183 12.8387 15.1942 12.6629C15.37 12.4871 15.4688 12.2486 15.4688 12C15.4688 11.7514 15.37 11.5129 15.1942 11.3371C15.0183 11.1613 14.7799 11.0625 14.5312 11.0625C14.2826 11.0625 14.0442 11.1613 13.8683 11.3371C13.6925 11.5129 13.5938 11.7514 13.5938 12Z" fill="white"/>
</svg>
