<svg width="83" height="42" viewBox="0 0 83 42" fill="none" xmlns="http://www.w3.org/2000/svg">
<g filter="url(#filter0_d)">
<g clip-path="url(#clip0)">
<rect x="1" y="1" width="81" height="40" rx="20" fill="white"/>
<circle cx="23.5" cy="21" r="10.5" fill="#D5D7D9"/>
<path d="M58.301 31H58.201C56.8295 30.9895 55.4739 30.7056 54.2135 30.1647C52.9532 29.6238 51.8134 28.8369 50.861 27.85C49.0948 25.9613 48.0908 23.4853 48.0428 20.8999C47.9948 18.3145 48.9061 15.803 50.601 13.85C51.6928 12.6263 53.0655 11.6861 54.601 11.11C54.7801 11.041 54.9753 11.0251 55.1633 11.0641C55.3513 11.1032 55.524 11.1954 55.661 11.33C55.7878 11.4593 55.8771 11.6206 55.9194 11.7968C55.9616 11.9729 55.9553 12.1572 55.901 12.33C55.3529 13.8309 55.2443 15.457 55.588 17.0175C55.9316 18.578 56.7131 20.0081 57.841 21.14C58.9793 22.2643 60.4128 23.0433 61.9755 23.3866C63.5382 23.7299 65.1662 23.6236 66.671 23.08C66.8501 23.0169 67.0434 23.0062 67.2284 23.049C67.4134 23.0918 67.5824 23.1864 67.7156 23.3217C67.8488 23.457 67.9407 23.6274 67.9807 23.8131C68.0206 23.9987 68.0068 24.1919 67.941 24.37C67.4301 25.7337 66.6321 26.9717 65.601 28C64.6418 28.9563 63.5031 29.7136 62.2503 30.2285C60.9976 30.7433 59.6554 31.0055 58.301 31ZM53.461 13.92C52.9586 14.2723 52.4989 14.6817 52.091 15.14C50.7155 16.7161 49.9744 18.7469 50.0113 20.8385C50.0483 22.9301 50.8607 24.9334 52.291 26.46C53.0595 27.2582 53.9802 27.8942 54.9987 28.3305C56.0173 28.7667 57.1129 28.9944 58.221 29H58.301C59.6271 28.9992 60.934 28.6822 62.1132 28.0753C63.2923 27.4683 64.3097 26.5889 65.081 25.51C63.5093 25.7136 61.9119 25.5544 60.4114 25.0444C58.9109 24.5344 57.5472 23.6873 56.4252 22.5681C55.3031 21.449 54.4525 20.0875 53.9386 18.5883C53.4248 17.0892 53.2614 15.4922 53.461 13.92Z" fill="black"/>
</g>
</g>
<defs>
<filter id="filter0_d" x="0" y="0" width="83" height="42" filterUnits="userSpaceOnUse" color-interpolation-filters="sRGB">
<feFlood flood-opacity="0" result="BackgroundImageFix"/>
<feColorMatrix in="SourceAlpha" type="matrix" values="0 0 0 0 0 0 0 0 0 0 0 0 0 0 0 0 0 0 127 0"/>
<feOffset/>
<feGaussianBlur stdDeviation="0.5"/>
<feColorMatrix type="matrix" values="0 0 0 0 0 0 0 0 0 0 0 0 0 0 0 0 0 0 0.25 0"/>
<feBlend mode="normal" in2="BackgroundImageFix" result="effect1_dropShadow"/>
<feBlend mode="normal" in="SourceGraphic" in2="effect1_dropShadow" result="shape"/>
</filter>
<clipPath id="clip0">
<rect x="1" y="1" width="81" height="40" rx="20" fill="white"/>
</clipPath>
</defs>
</svg>
