<svg width="24" height="24" viewBox="0 0 24 24" fill="none" xmlns="http://www.w3.org/2000/svg">
<path d="M6.13477 14.5642C5.91445 14.9064 5.73633 15.2744 5.60742 15.6564H7.59492V13.0947C7.01367 13.4744 6.5168 13.9736 6.13477 14.5642ZM16.4074 13.0947V15.6564H18.3949C18.266 15.2744 18.0879 14.9064 17.8676 14.5642C17.4897 13.9771 16.9922 13.4763 16.4074 13.0947ZM14.9074 7.47205L12.0012 4.02673L9.09492 7.47205V15.6564H14.9074V7.47205ZM12.0012 10.5002C11.7068 10.4942 11.4265 10.373 11.2204 10.1627C11.0143 9.95235 10.8989 9.66962 10.8989 9.37517C10.8989 9.08072 11.0143 8.798 11.2204 8.58767C11.4265 8.37735 11.7068 8.25618 12.0012 8.25017C12.2956 8.25618 12.5759 8.37735 12.7819 8.58767C12.988 8.798 13.1034 9.08072 13.1034 9.37517C13.1034 9.66962 12.988 9.95235 12.7819 10.1627C12.5759 10.373 12.2956 10.4942 12.0012 10.5002Z" fill="#E6F7FF"/>
<path d="M20.25 17.25C20.25 14.6344 18.7172 12.375 16.5 11.3227V7.43672C16.5 7.08281 16.3758 6.74063 16.1461 6.47109L12.5742 2.23594C12.4242 2.05781 12.2109 1.96875 12 1.96875C11.7891 1.96875 11.5758 2.05781 11.4258 2.23594L7.85391 6.47109C7.62578 6.74118 7.50043 7.08318 7.5 7.43672V11.3227C5.28281 12.375 3.75 14.6344 3.75 17.25H7.41797C7.36406 17.4187 7.33594 17.6016 7.33594 17.8078C7.33594 18.3258 7.51406 18.832 7.8375 19.2328C8.1015 19.5606 8.45115 19.8088 8.84766 19.95C9.38906 21.2156 10.6195 22.0312 12 22.0312C12.682 22.0312 13.343 21.8297 13.9078 21.45C14.4609 21.0797 14.8898 20.5617 15.15 19.95C15.5463 19.8097 15.896 19.5623 16.1602 19.2352C16.484 18.8307 16.6609 18.3283 16.6617 17.8102C16.6617 17.6133 16.6359 17.4258 16.5891 17.2523L20.25 17.25ZM7.59375 15.6562H5.60625C5.73516 15.2742 5.91328 14.9063 6.13359 14.5641C6.51563 13.9734 7.0125 13.4742 7.59375 13.0945V15.6562ZM9.09375 11.3227V7.47187L12 4.02656L14.9062 7.47187V15.6562H9.09375V11.3227ZM14.7211 18.3797C14.5992 18.45 14.4586 18.4781 14.3203 18.4594L13.8633 18.4031L13.7977 18.8578C13.6711 19.7461 12.8977 20.4164 12 20.4164C11.1023 20.4164 10.3289 19.7461 10.2023 18.8578L10.1367 18.4008L9.67969 18.4594C9.54074 18.4759 9.40017 18.4472 9.27891 18.3773C9.075 18.2602 8.94844 18.0422 8.94844 17.8055C8.94844 17.557 9.08672 17.3508 9.29062 17.2477H14.7117C14.918 17.3531 15.0539 17.5594 15.0539 17.8055C15.0516 18.0445 14.925 18.2648 14.7211 18.3797ZM16.4062 15.6562V13.0945C16.991 13.4761 17.4886 13.9769 17.8664 14.5641C18.0867 14.9063 18.2648 15.2742 18.3937 15.6562H16.4062Z" fill="#1890FF"/>
<path d="M10.875 9.375C10.875 9.67337 10.9935 9.95952 11.2045 10.1705C11.4155 10.3815 11.7016 10.5 12 10.5C12.2984 10.5 12.5845 10.3815 12.7955 10.1705C13.0065 9.95952 13.125 9.67337 13.125 9.375C13.125 9.07663 13.0065 8.79048 12.7955 8.5795C12.5845 8.36853 12.2984 8.25 12 8.25C11.7016 8.25 11.4155 8.36853 11.2045 8.5795C10.9935 8.79048 10.875 9.07663 10.875 9.375Z" fill="#1890FF"/>
</svg>
