<svg width="24" height="24" viewBox="0 0 24 24" fill="none" xmlns="http://www.w3.org/2000/svg">
<path d="M12 10L15.4641 12V16L12 18L8.5359 16V12L12 10Z" fill="#E6F7FF"/>
<path d="M20.8197 16.2469C19.8236 15.6703 18.6095 15.825 17.7916 16.5469L16.5494 15.8273V12.2719C16.5494 11.9039 16.3525 11.5617 16.0337 11.3789L12.8462 9.54375V7.97109C13.8822 7.61953 14.6275 6.63984 14.6275 5.48438C14.6275 4.03359 13.4533 2.85938 12.0025 2.85938C10.5517 2.85938 9.37749 4.03359 9.37749 5.48438C9.37749 6.63984 10.1228 7.61953 11.1587 7.97109V9.54375L7.97124 11.3789C7.65249 11.5617 7.45562 11.9039 7.45562 12.2719V15.825L6.21343 16.5445C5.39546 15.8227 4.17905 15.668 3.1853 16.2445C1.9314 16.9711 1.50483 18.5742 2.22437 19.8281C2.94624 21.082 4.54233 21.5133 5.79155 20.7891C6.78765 20.2125 7.26108 19.0781 7.0478 18.0047L8.18921 17.3414L11.4845 19.2398C11.6439 19.3313 11.822 19.3781 12.0001 19.3781C12.1783 19.3781 12.3564 19.3313 12.5158 19.2398L15.8087 17.3438L16.9501 18.007C16.7369 19.0781 17.2126 20.2148 18.2064 20.7914C19.4556 21.5156 21.0541 21.0867 21.7736 19.8305C22.4955 18.5742 22.0689 16.9711 20.8197 16.2469ZM5.04624 19.4906C4.91894 19.5644 4.77831 19.6122 4.63245 19.6313C4.48659 19.6505 4.33838 19.6406 4.19636 19.6023C4.05433 19.564 3.92128 19.4979 3.80488 19.408C3.68848 19.318 3.59102 19.2059 3.51812 19.0781C3.20874 18.5414 3.39155 17.8523 3.92827 17.543C4.05557 17.4692 4.1962 17.4214 4.34206 17.4022C4.48792 17.3831 4.63613 17.3929 4.77816 17.4313C4.92019 17.4696 5.05323 17.5357 5.16963 17.6256C5.28603 17.7156 5.38349 17.8277 5.4564 17.9555C5.76577 18.4922 5.58296 19.1812 5.04624 19.4906ZM10.8751 5.48438C10.8812 5.18998 11.0023 4.90968 11.2126 4.7036C11.423 4.49753 11.7057 4.38211 12.0001 4.38211C12.2946 4.38211 12.5773 4.49753 12.7876 4.7036C12.998 4.90968 13.1191 5.18998 13.1251 5.48438C13.1191 5.77877 12.998 6.05907 12.7876 6.26515C12.5773 6.47122 12.2946 6.58664 12.0001 6.58664C11.7057 6.58664 11.423 6.47122 11.2126 6.26515C11.0023 6.05907 10.8812 5.77877 10.8751 5.48438ZM14.8595 15.9422L12.0001 17.5898L9.14077 15.9422V12.6516L12.0001 11.0039L14.8595 12.6516V15.9422ZM20.4822 19.0805C20.1728 19.6172 19.4884 19.8023 18.9541 19.493C18.4197 19.1836 18.2345 18.4945 18.5439 17.9578C18.8533 17.4211 19.5376 17.2359 20.072 17.5453C20.6087 17.8547 20.7916 18.5414 20.4822 19.0805Z" fill="#1890FF"/>
</svg>
