<svg width="25" height="24" viewBox="0 0 25 24" fill="none" xmlns="http://www.w3.org/2000/svg">
<path d="M20.818 3.98203L12.8539 1.26797C12.7578 1.23516 12.6289 1.21875 12.5 1.21875C12.3711 1.21875 12.2422 1.23516 12.1461 1.26797L4.18203 3.98203C3.9875 4.04766 3.82812 4.27266 3.82812 4.47891V15.7852C3.82812 15.9914 3.96172 16.2633 4.12344 16.3922L12.2023 22.6875C12.2844 22.7508 12.3898 22.7836 12.4977 22.7836C12.6055 22.7836 12.7133 22.7508 12.793 22.6875L20.8719 16.3922C21.0336 16.2656 21.1672 15.9937 21.1672 15.7852V4.47891C21.1719 4.27266 21.0125 4.05 20.818 3.98203ZM19.4844 15.3352L12.5 20.7773L5.51562 15.3352V5.31328L12.5 2.93203L19.4844 5.31328V15.3352Z" fill="#1890FF"/>
<path d="M5.51562 5.31368V15.3356L12.5 20.7777L19.4844 15.3356V5.31368L12.5 2.93243L5.51562 5.31368Z" fill="#E6F7FF"/>
<rect x="11.5" y="6" width="2" height="10" fill="#1890FF"/>
</svg>
