<svg id="图层_1" data-name="图层 1" xmlns="http://www.w3.org/2000/svg" xmlns:xlink="http://www.w3.org/1999/xlink" viewBox="0 0 214.35 55.47"><defs><style>.cls-1{fill:url(#未命名的渐变_11);}.cls-2{fill:#30284f;}</style><linearGradient id="未命名的渐变_11" x1="113.76" y1="83.59" x2="142.65" y2="83.59" gradientUnits="userSpaceOnUse"><stop offset="0" stop-color="#a166ff"/><stop offset="1" stop-color="#7878ff"/></linearGradient></defs><title>lendf_logo1</title><path class="cls-1" d="M141.24,69.14H115.16a1.41,1.41,0,0,0-1.41,1.41V79.3a1.41,1.41,0,0,0,1.41,1.41h15.43a.5.5,0,0,1,.5.5V96.63A1.41,1.41,0,0,0,132.5,98h8.75a1.41,1.41,0,0,0,1.41-1.41V70.55A1.41,1.41,0,0,0,141.24,69.14Z" transform="translate(-87.17 -69.14)"/><path class="cls-2" d="M139.72,107.28H105a.5.5,0,0,1-.5-.5V72.07a1.41,1.41,0,0,0-2.29-1.1L87.7,82.59a1.41,1.41,0,0,0-.53,1.1v39.52a1.41,1.41,0,0,0,1.41,1.41H128.1a1.41,1.41,0,0,0,1.1-.53l11.62-14.52A1.41,1.41,0,0,0,139.72,107.28Z" transform="translate(-87.17 -69.14)"/><path class="cls-2" d="M167.46,85.51h-3.21a.75.75,0,0,0-.75.75v21.25a.75.75,0,0,0,.75.75H177.6a.75.75,0,0,0,.75-.75V105a.75.75,0,0,0-.75-.75h-8.65a.75.75,0,0,1-.75-.75V86.26A.75.75,0,0,0,167.46,85.51Z" transform="translate(-87.17 -69.14)"/><path class="cls-2" d="M185.77,98.51h7a.75.75,0,0,0,.75-.75v-2.5a.75.75,0,0,0-.75-.75h-7a.75.75,0,0,1-.75-.75V90.24a.75.75,0,0,1,.75-.75h8.4a.75.75,0,0,0,.75-.75v-2.5a.75.75,0,0,0-.75-.75h-13.1a.75.75,0,0,0-.75.75v21.25a.75.75,0,0,0,.75.75h13.2a.75.75,0,0,0,.75-.75V105a.75.75,0,0,0-.75-.75h-8.5a.75.75,0,0,1-.75-.75V99.26A.75.75,0,0,1,185.77,98.51Z" transform="translate(-87.17 -69.14)"/><path class="cls-2" d="M209.1,97.63l-7.24-11.77a.75.75,0,0,0-.63-.35h-3.3a.75.75,0,0,0-.75.75v21.25a.75.75,0,0,0,.75.75h3.21a.75.75,0,0,0,.75-.75v-11a.75.75,0,0,1,1.38-.39l7.24,11.77a.75.75,0,0,0,.63.35h3.3a.75.75,0,0,0,.75-.75V86.26a.75.75,0,0,0-.75-.75h-3.21a.75.75,0,0,0-.75.75v11A.75.75,0,0,1,209.1,97.63Z" transform="translate(-87.17 -69.14)"/><path class="cls-2" d="M226.34,85.51h-7a.75.75,0,0,0-.75.75v21.25a.75.75,0,0,0,.75.75h7a9.67,9.67,0,0,0,7.08-2.72,9.48,9.48,0,0,0,2.74-7V95.25a9.51,9.51,0,0,0-2.74-7A9.64,9.64,0,0,0,226.34,85.51Zm-3,4.73a.75.75,0,0,1,.75-.75h2.25a4.64,4.64,0,0,1,3.72,1.58,6.11,6.11,0,0,1,1.4,4.14v3.32a6.16,6.16,0,0,1-1.4,4.17,4.64,4.64,0,0,1-3.72,1.58h-2.25a.75.75,0,0,1-.75-.75Z" transform="translate(-87.17 -69.14)"/><path class="cls-2" d="M251.74,95H244.5a.75.75,0,0,1-.75-.75v-4a.75.75,0,0,1,.75-.75h8.76a.75.75,0,0,0,.75-.75v-2.5a.75.75,0,0,0-.75-.75H239.8a.75.75,0,0,0-.75.75v21.25a.75.75,0,0,0,.75.75H243a.75.75,0,0,0,.75-.75V99.76a.75.75,0,0,1,.75-.75h7.24a.75.75,0,0,0,.75-.75v-2.5A.75.75,0,0,0,251.74,95Z" transform="translate(-87.17 -69.14)"/><rect class="cls-2" x="164.67" y="34.55" width="4.69" height="4.55" rx="0.75" ry="0.75"/><path class="cls-2" d="M271.2,99.42l-5-13.42a.75.75,0,0,0-.7-.48h-4.4a.75.75,0,0,0-.75.75v21.25a.75.75,0,0,0,.75.75h3.21a.75.75,0,0,0,.75-.75V98.59a.75.75,0,0,1,1.44-.27l3.61,9.45a.75.75,0,0,0,.7.48H273a.75.75,0,0,0,.7-.48l3.51-9.17a.75.75,0,0,1,1.44.27v8.63a.75.75,0,0,0,.75.75h3.21a.75.75,0,0,0,.75-.75V86.26a.75.75,0,0,0-.75-.75h-4.27a.75.75,0,0,0-.7.48l-5,13.42A.75.75,0,0,1,271.2,99.42Z" transform="translate(-87.17 -69.14)"/><path class="cls-2" d="M291.53,103.53V99.26a.75.75,0,0,1,.75-.75h7a.75.75,0,0,0,.75-.75v-2.5a.75.75,0,0,0-.75-.75h-7a.75.75,0,0,1-.75-.75V90.24a.75.75,0,0,1,.75-.75h8.4a.75.75,0,0,0,.75-.75v-2.5a.75.75,0,0,0-.75-.75h-13.1a.75.75,0,0,0-.75.75v21.25a.75.75,0,0,0,.75.75h13.2a.75.75,0,0,0,.75-.75V105a.75.75,0,0,0-.75-.75h-8.5A.75.75,0,0,1,291.53,103.53Z" transform="translate(-87.17 -69.14)"/></svg>