<svg width="17" height="17" viewBox="0 0 17 17" fill="none" xmlns="http://www.w3.org/2000/svg">
<g clip-path="url(#clip0)">
<path d="M16.8125 2.67944C16.5612 2.42746 16.154 2.4268 15.9017 2.67771L11.0123 7.54737L9.5993 6.13435C9.34772 5.883 8.94036 5.88277 8.68878 6.13435L2.95773 11.8654C2.70615 12.1168 2.70615 12.5246 2.95773 12.776C3.0833 12.9017 3.24816 12.9646 3.41301 12.9646C3.57763 12.9646 3.74271 12.9017 3.86826 12.776L9.14406 7.50039L10.5562 8.91232C10.8076 9.16367 11.2139 9.1639 11.4659 8.91338L16.8106 3.59017C17.0626 3.33925 17.0634 2.93142 16.8125 2.67944Z" fill="#222222"/>
<path d="M16.3346 14.9394H1.28788V1.41668C1.28788 1.061 0.999611 0.772736 0.64394 0.772736C0.288269 0.772736 0 1.061 0 1.41668V15.5833C0 15.939 0.288269 16.2273 0.64394 16.2273H16.3346C16.6902 16.2273 16.9785 15.939 16.9785 15.5833C16.9785 15.2277 16.6902 14.9394 16.3346 14.9394Z" fill="#222222"/>
<path d="M16.3563 2.46844H11.5268C11.1711 2.46844 10.8828 2.75671 10.8828 3.11239C10.8828 3.46806 11.1711 3.75633 11.5268 3.75633H15.7124V7.94214C15.7124 8.29758 16.0006 8.58608 16.3563 8.58608C16.712 8.58608 17.0002 8.29758 17.0002 7.94191V3.11239C17.0002 2.75671 16.7119 2.46844 16.3563 2.46844Z" fill="#222222"/>
</g>
<defs>
<clipPath id="clip0">
<rect width="17" height="17" fill="white"/>
</clipPath>
</defs>
</svg>
