<svg width="17" height="17" viewBox="0 0 17 17" fill="none" xmlns="http://www.w3.org/2000/svg">
<g clip-path="url(#clip0)">
<path d="M16.8124 2.67944C16.561 2.42746 16.1538 2.4268 15.9016 2.67771L11.0122 7.54737L9.59918 6.13435C9.3476 5.883 8.94023 5.88277 8.68865 6.13435L2.95761 11.8654C2.70603 12.1168 2.70603 12.5246 2.95761 12.776C3.08318 12.9017 3.24803 12.9646 3.41289 12.9646C3.57751 12.9646 3.74259 12.9017 3.86813 12.776L9.14393 7.50039L10.5561 8.91232C10.8074 9.16367 11.2138 9.1639 11.4658 8.91338L16.8105 3.59017C17.0624 3.33925 17.0633 2.93142 16.8124 2.67944Z" fill="#18A0FB"/>
<path d="M16.3346 14.9394H1.28788V1.41668C1.28788 1.061 0.999611 0.772736 0.64394 0.772736C0.288269 0.772736 0 1.061 0 1.41668V15.5833C0 15.939 0.288269 16.2273 0.64394 16.2273H16.3346C16.6902 16.2273 16.9785 15.939 16.9785 15.5833C16.9785 15.2277 16.6902 14.9394 16.3346 14.9394Z" fill="#18A0FB"/>
<path d="M16.356 2.46844H11.5265C11.1708 2.46844 10.8826 2.75671 10.8826 3.11239C10.8826 3.46806 11.1708 3.75633 11.5265 3.75633H15.7121V7.94214C15.7121 8.29758 16.0004 8.58608 16.3561 8.58608C16.7117 8.58608 17 8.29758 17 7.94191V3.11239C17 2.75671 16.7117 2.46844 16.356 2.46844Z" fill="#18A0FB"/>
</g>
<defs>
<clipPath id="clip0">
<rect width="17" height="17" fill="white"/>
</clipPath>
</defs>
</svg>
