<svg width="14" height="14" viewBox="0 0 14 14" fill="none" xmlns="http://www.w3.org/2000/svg">
<path d="M3.125 14V4.65625H0.21875V14H3.125ZM1.65625 3.40625C2.59375 3.40625 3.34375 2.625 3.34375 1.6875C3.34375 0.78125 2.59375 0.03125 1.65625 0.03125C0.75 0.03125 0 0.78125 0 1.6875C0 2.625 0.75 3.40625 1.65625 3.40625ZM13.9688 14H14V8.875C14 6.375 13.4375 4.4375 10.5 4.4375C9.09375 4.4375 8.15625 5.21875 7.75 5.9375H7.71875V4.65625H4.9375V14H7.84375V9.375C7.84375 8.15625 8.0625 7 9.5625 7C11.0625 7 11.0938 8.375 11.0938 9.46875V14H13.9688Z" fill="#222222"/>
</svg>
