<svg width="16" height="12" viewBox="0 0 16 12" fill="none" xmlns="http://www.w3.org/2000/svg">
<path d="M2.21875 2.46875V9.15625C2.25 9.375 2.1875 9.625 2.03125 9.8125L0.4375 11.7188V11.9688H4.9375V11.7188L3.34375 9.8125C3.15625 9.625 3.09375 9.375 3.125 9.15625V3.375L7.0625 12H7.53125L10.9375 3.375V10.2188C10.9375 10.4062 10.9375 10.4375 10.8125 10.5625L9.59375 11.75V12H15.5312V11.75L14.3438 10.5938C14.25 10.5312 14.1875 10.375 14.2188 10.25V1.75C14.1875 1.625 14.25 1.5 14.3438 1.4375L15.5312 0.28125V0H11.375L8.375 7.4375L5 0H0.625V0.28125L2.03125 1.96875C2.15625 2.09375 2.25 2.28125 2.21875 2.46875Z" fill="#222222"/>
</svg>
