<svg width="17" height="17" viewBox="0 0 17 17" fill="none" xmlns="http://www.w3.org/2000/svg">
<path d="M16.0771 4.67627L9.39795 8.57229L15.3354 13.5199C16.3762 12.1133 16.9998 10.3803 16.9998 8.50001C16.9998 7.12337 16.6626 5.82646 16.0771 4.67627Z" fill="#18A0FB"/>
<path d="M9.03125 0V7.63267L15.5788 3.81335C14.1466 1.66723 11.76 0.159973 9.03125 0Z" fill="#18A0FB"/>
<path d="M8.21415 8.88277C8.11132 8.79664 8.03516 8.60791 8.03516 8.5V0C3.59869 0.260014 0 3.99942 0 8.5C0 13.1687 3.86451 17 8.5332 17C10.9638 17 13.1522 15.9314 14.6978 14.2856L8.21415 8.88277Z" fill="#18A0FB"/>
</svg>
