<svg width="31" height="31" viewBox="0 0 31 31" fill="none" xmlns="http://www.w3.org/2000/svg">
<g clip-path="url(#clip0)">
<path d="M15.5015 29.2656L21.6427 27.7147C25.1481 24.804 27.3808 20.4136 27.3808 15.5013C27.3808 7.92418 22.0702 1.58753 14.968 0.0102234C6.65392 0.290616 0 7.11885 0 15.5012C0 19.8068 1.75586 23.702 4.59018 26.5108L15.5015 29.2656Z" fill="#CBE2FF"/>
<path d="M27.0592 15.5C27.0592 20.5808 24.6142 25.0901 20.8371 27.9169L26.4093 26.5097C29.2438 23.701 30.9999 19.8057 30.9999 15.5C30.9999 6.93958 24.0603 0 15.4999 0C14.8325 0 14.1748 0.0422617 13.5295 0.124121C21.1596 1.09214 27.0592 7.60711 27.0592 15.5Z" fill="#BED8FB"/>
<path d="M19.3522 5.87015C19.3522 5.0785 18.7105 4.43677 17.9189 4.43677H12.9793C11.1574 4.43677 9.68042 5.91375 9.68042 7.73566V11.3983H21.3181V7.78761C21.3181 6.99596 20.6763 6.35423 19.8847 6.35423H19.8364C19.569 6.35423 19.3522 6.13753 19.3522 5.87015Z" fill="#365E7D"/>
<path d="M19.8846 6.35423H19.8363C19.5689 6.35423 19.3522 6.13747 19.3522 5.87009C19.3522 5.07844 18.7104 4.43671 17.9188 4.43671H17.3772V11.3983H21.318V7.78755C21.318 6.99602 20.6762 6.35423 19.8846 6.35423Z" fill="#2B4D66"/>
<path d="M25.7352 22.5449C25.3562 22.1706 24.8874 21.8811 24.3553 21.7127L20.1236 20.3729L15.501 20.2105L10.8764 20.3729L6.64473 21.7127C5.21316 22.166 4.24023 23.4945 4.24023 24.9961V26.1522C6.95207 29.0178 10.7461 30.8487 14.9681 30.9911C19.6985 29.9404 23.6341 26.7785 25.7352 22.5449Z" fill="#4A80AA"/>
<path d="M26.7597 26.1522V24.9961C26.7597 23.9343 26.2729 22.9596 25.4819 22.3191C23.2349 26.898 18.7962 30.2064 13.5332 30.8754C14.1685 30.9559 14.8155 30.9988 15.4723 31C16.1034 30.999 16.7261 30.9624 17.3386 30.8921C21.0338 30.4554 24.3308 28.7188 26.7597 26.1522Z" fill="#407093"/>
<path d="M15.851 30.768C16.7888 28.9061 19.2308 23.6194 18.5345 20.3171L15.501 19.1365L12.4647 20.3171C11.7469 23.7214 14.3641 29.2343 15.2306 30.9304C15.439 30.8804 15.6459 30.8262 15.851 30.768Z" fill="#E4F6FF"/>
<path d="M17.4496 29.292L16.2196 24.4532H14.7806L13.5537 29.2788L15.0709 30.9678C15.456 30.8796 15.8358 30.7774 16.2098 30.6617L17.4496 29.292Z" fill="#E28086"/>
<path d="M15.0945 30.9943C15.2201 30.9975 15.346 30.9998 15.4723 31C15.6185 30.9998 15.7643 30.9972 15.9096 30.9932L16.6911 30.1298C16.076 30.3456 15.4432 30.5237 14.7954 30.6614L15.0945 30.9943Z" fill="#DD636E"/>
<path d="M18.0903 19.8705V17.1419H12.9087V19.8705C12.9087 21.3013 15.4995 22.8643 15.4995 22.8643C15.4995 22.8643 18.0903 21.3013 18.0903 19.8705Z" fill="#FFDDCE"/>
<path d="M21.3181 10.9177H20.3276C19.7767 10.9177 19.3302 10.4712 19.3302 9.92032V9.37449C19.3302 8.65695 18.6282 8.14962 17.9469 8.3748C16.358 8.89998 14.6423 8.9001 13.0533 8.37516L13.0514 8.37455C12.3702 8.1495 11.6682 8.65682 11.6682 9.3743V9.92038C11.6682 10.4712 11.2217 10.9178 10.6708 10.9178H9.68042V12.5488C9.68042 12.9655 10.0183 13.3034 10.4351 13.3034C10.5666 13.3034 10.6736 13.4064 10.6819 13.5377C10.841 16.0606 12.9363 18.0578 15.4993 18.0578C18.0622 18.0578 20.1576 16.0606 20.3167 13.5377C20.325 13.4065 20.432 13.3034 20.5635 13.3034C20.9802 13.3034 21.3181 12.9656 21.3181 12.5488V10.9177H21.3181Z" fill="#FFDDCE"/>
<path d="M20.3277 10.9177C19.7768 10.9177 19.3303 10.4712 19.3303 9.92031V9.37448C19.3303 8.65694 18.6282 8.14961 17.947 8.37479C17.7588 8.43697 17.5687 8.49122 17.3774 8.53869V13.9257C17.3509 15.6784 16.3905 17.2038 14.9722 18.0282C15.1454 18.047 15.3211 18.0576 15.4993 18.0576C18.0622 18.0576 20.1576 16.0604 20.3167 13.5376C20.325 13.4064 20.432 13.3033 20.5635 13.3033C20.9802 13.3033 21.3182 12.9655 21.3182 12.5486V10.9176H20.3277V10.9177Z" fill="#FFCBBE"/>
<path d="M12.9081 19.1365L10.8762 20.7874L13.007 23.422C13.2662 23.6743 13.6742 23.6898 13.9518 23.4579L15.5542 22.1194L12.9081 19.1365Z" fill="#F4FBFF"/>
<path d="M18.0904 19.1365L15.554 22.1194L17.06 23.4071C17.3359 23.643 17.7458 23.6312 18.0076 23.3797L20.1231 20.7874L18.0904 19.1365Z" fill="#F4FBFF"/>
<path d="M12.9082 19.1365L9.92587 20.6016C9.69882 20.7132 9.60764 20.9894 9.72358 21.2142L10.3079 22.347C10.4593 22.6406 10.4034 22.9983 10.1697 23.2316C10.0494 23.3517 9.91909 23.4817 9.80617 23.5945C9.60406 23.7962 9.53147 24.0943 9.62047 24.3657C10.3259 26.5161 13.721 29.8045 15.0059 30.9942C15.0923 30.9965 15.1789 30.9981 15.2656 30.9991C14.3339 29.1867 11.0321 22.3012 12.9082 19.1365Z" fill="#365E7D"/>
<path d="M20.8293 23.2316C20.5955 22.9982 20.5397 22.6405 20.6911 22.347L21.2754 21.2141C21.3913 20.9893 21.3001 20.7131 21.0731 20.6016L18.0908 19.1365C19.9664 22.3004 16.6669 29.183 15.7341 30.9976C15.8218 30.9961 15.9093 30.9939 15.9966 30.991C17.2841 29.7985 20.6737 26.5142 21.3785 24.3657C21.4675 24.0944 21.3949 23.7963 21.1928 23.5945C21.0799 23.4817 20.9496 23.3516 20.8293 23.2316Z" fill="#365E7D"/>
<path d="M15.5544 22.1194L13.9766 23.4372L14.7805 24.4532H16.2195L17.0235 23.3772L15.5544 22.1194Z" fill="#DD636E"/>
<circle cx="26" cy="5" r="4" fill="#01DE59" stroke="white" stroke-width="2"/>
</g>
<defs>
<clipPath id="clip0">
<rect width="31" height="31" fill="white"/>
</clipPath>
</defs>
</svg>
