<svg width="16" height="17" viewBox="0 0 16 17" fill="none" xmlns="http://www.w3.org/2000/svg">
<path d="M14.5625 2.625L8.5625 0.125C8.40625 0.0625 8.15625 0.03125 8 0.03125C7.8125 0.03125 7.5625 0.0625 7.40625 0.125L1.40625 2.625C0.84375 2.875 0.5 3.40625 0.5 4C0.5 10.2188 4.0625 14.5 7.40625 15.9062C7.78125 16.0625 8.1875 16.0625 8.5625 15.9062C11.25 14.7812 15.5 10.9375 15.5 4C15.5 3.40625 15.125 2.875 14.5625 2.625ZM8 13.9688V2.0625L13.4688 4.34375C13.375 9.0625 10.9062 12.5 8 13.9688Z" fill="#18A0FB"/>
</svg>
