<svg width="14" height="14" viewBox="0 0 14 14" fill="none" xmlns="http://www.w3.org/2000/svg">
<path d="M2.9375 8.875V7.40625H1.46875C0.65625 7.40625 0 8.0625 0 8.875C0 9.65625 0.65625 10.3438 1.46875 10.3438C2.25 10.3438 2.9375 9.65625 2.9375 8.875ZM3.65625 8.875V12.5312C3.65625 13.3438 4.34375 14 5.125 14C5.9375 14 6.59375 13.3438 6.59375 12.5312V8.875C6.59375 8.0625 5.9375 7.40625 5.125 7.40625C4.34375 7.40625 3.65625 8.0625 3.65625 8.875ZM5.125 2.96875H6.59375V1.5C6.59375 0.6875 5.9375 0 5.125 0C4.34375 0 3.65625 0.6875 3.65625 1.5C3.65625 2.28125 4.34375 2.96875 5.125 2.96875ZM5.125 3.6875H1.46875C0.65625 3.6875 0 4.34375 0 5.15625C0 5.96875 0.65625 6.625 1.46875 6.625H5.125C5.9375 6.625 6.59375 5.96875 6.59375 5.15625C6.59375 4.34375 5.9375 3.6875 5.125 3.6875ZM11.0312 5.15625V6.625H12.5C13.3125 6.625 14 5.96875 14 5.15625C14 4.34375 13.3125 3.6875 12.5 3.6875C11.7188 3.6875 11.0312 4.34375 11.0312 5.15625ZM10.3125 5.15625V1.5C10.3125 0.6875 9.65625 0 8.84375 0C8.03125 0 7.375 0.6875 7.375 1.5V5.15625C7.375 5.96875 8.03125 6.625 8.84375 6.625C9.65625 6.625 10.3125 5.96875 10.3125 5.15625ZM8.84375 11.0625H7.375V12.5312C7.375 13.3438 8.03125 14 8.84375 14C9.65625 14 10.3125 13.3438 10.3125 12.5312C10.3125 11.75 9.65625 11.0625 8.84375 11.0625ZM8.84375 10.3438H12.5C13.3125 10.3438 14 9.65625 14 8.875C14 8.0625 13.3125 7.40625 12.5 7.40625H8.84375C8.03125 7.40625 7.375 8.0625 7.375 8.875C7.375 9.65625 8.03125 10.3438 8.84375 10.3438Z" fill="#222222"/>
</svg>
