<svg width="16" height="14" viewBox="0 0 16 14" fill="none" xmlns="http://www.w3.org/2000/svg">
<path d="M14.3438 3.75C14.9688 3.28125 15.5312 2.71875 15.9688 2.0625C15.4062 2.3125 14.75 2.5 14.0938 2.5625C14.7812 2.15625 15.2812 1.53125 15.5312 0.75C14.9062 1.125 14.1875 1.40625 13.4688 1.5625C12.8438 0.90625 12 0.53125 11.0625 0.53125C9.25 0.53125 7.78125 2 7.78125 3.8125C7.78125 4.0625 7.8125 4.3125 7.875 4.5625C5.15625 4.40625 2.71875 3.09375 1.09375 1.125C0.8125 1.59375 0.65625 2.15625 0.65625 2.78125C0.65625 3.90625 1.21875 4.90625 2.125 5.5C1.59375 5.46875 1.0625 5.34375 0.625 5.09375V5.125C0.625 6.71875 1.75 8.03125 3.25 8.34375C3 8.40625 2.6875 8.46875 2.40625 8.46875C2.1875 8.46875 2 8.4375 1.78125 8.40625C2.1875 9.71875 3.40625 10.6562 4.84375 10.6875C3.71875 11.5625 2.3125 12.0938 0.78125 12.0938C0.5 12.0938 0.25 12.0625 0 12.0312C1.4375 12.9688 3.15625 13.5 5.03125 13.5C11.0625 13.5 14.3438 8.53125 14.3438 4.1875C14.3438 4.03125 14.3438 3.90625 14.3438 3.75Z" fill="#222222"/>
</svg>
