<svg width="22" height="22" viewBox="0 0 22 22" fill="none" xmlns="http://www.w3.org/2000/svg">
<path d="M11 0.5C5.20156 0.5 0.5 5.20156 0.5 11C0.5 16.7984 5.20156 21.5 11 21.5C16.7984 21.5 21.5 16.7984 21.5 11C21.5 5.20156 16.7984 0.5 11 0.5ZM16.0461 8.41484C16.0531 8.525 16.0531 8.63984 16.0531 8.75234C16.0531 12.193 13.4328 16.1562 8.64453 16.1562C7.16797 16.1562 5.79922 15.7273 4.64609 14.9891C4.85703 15.0125 5.05859 15.0219 5.27422 15.0219C6.49297 15.0219 7.61328 14.6094 8.50625 13.9109C7.3625 13.8875 6.40156 13.1375 6.07344 12.1063C6.47422 12.1648 6.83516 12.1648 7.24766 12.0594C6.65873 11.9397 6.12939 11.6199 5.74957 11.1542C5.36974 10.6885 5.16286 10.1056 5.16406 9.50469V9.47187C5.50859 9.66641 5.91406 9.78594 6.33828 9.80234C5.98166 9.56467 5.6892 9.24268 5.48682 8.86491C5.28445 8.48715 5.17841 8.06528 5.17813 7.63672C5.17813 7.15156 5.30469 6.70859 5.53203 6.32422C6.18571 7.12891 7.0014 7.78705 7.92609 8.25586C8.85078 8.72466 9.86377 8.99364 10.8992 9.04531C10.5312 7.27578 11.8531 5.84375 13.4422 5.84375C14.1922 5.84375 14.8672 6.15781 15.343 6.66406C15.9312 6.55391 16.4937 6.33359 16.9953 6.03828C16.8008 6.64062 16.393 7.14922 15.8516 7.47031C16.3766 7.41406 16.8828 7.26875 17.3516 7.06484C16.9977 7.58516 16.5547 8.04688 16.0461 8.41484Z" fill="#575859"/>
</svg>
