<svg width="22" height="18" viewBox="0 0 22 18" fill="none" xmlns="http://www.w3.org/2000/svg">
<path fill-rule="evenodd" clip-rule="evenodd" d="M16.852 17.8013C17.1471 18.0065 17.5275 18.0578 17.8667 17.9318C18.2059 17.8049 18.4552 17.5205 18.5304 17.1758C19.3269 13.5001 21.2592 4.19684 21.9843 0.853334C22.0393 0.601334 21.9476 0.339434 21.746 0.171134C21.5443 0.00283346 21.2647 -0.0457667 21.0154 0.0451334C17.1719 1.44194 5.33524 5.80244 0.497187 7.56014C0.19011 7.67174 -0.00971841 7.96154 0.000364691 8.27924C0.0113644 8.59784 0.229526 8.87414 0.543936 8.96684C2.71364 9.60404 5.56165 10.4905 5.56165 10.4905C5.56165 10.4905 6.89262 14.4371 7.58653 16.4441C7.67361 16.6961 7.87435 16.8941 8.13926 16.9625C8.40326 17.03 8.68558 16.9589 8.88266 16.7762C9.9973 15.743 11.7206 14.1454 11.7206 14.1454C11.7206 14.1454 14.9949 16.5026 16.852 17.8013ZM6.75971 9.99195L8.29876 14.9762L8.64067 11.8198C8.64067 11.8198 14.587 6.55394 17.9767 3.55244C18.0757 3.46424 18.0895 3.31664 18.007 3.21314C17.9254 3.10964 17.775 3.08534 17.6623 3.15554C13.7336 5.61884 6.75971 9.99195 6.75971 9.99195Z" fill="#575859"/>
</svg>
