<svg width="22" height="22" viewBox="0 0 22 22" fill="none" xmlns="http://www.w3.org/2000/svg">
<path d="M11 0.5C5.20156 0.5 0.5 5.20156 0.5 11C0.5 16.7984 5.20156 21.5 11 21.5C16.7984 21.5 21.5 16.7984 21.5 11C21.5 5.20156 16.7984 0.5 11 0.5ZM17 6.44609L16.0438 7.3625C15.9594 7.42578 15.9195 7.52891 15.9359 7.62969V14.3727C15.9195 14.4758 15.9594 14.5789 16.0438 14.6398L16.9813 15.5563V15.7602H12.275V15.5656L13.243 14.6258C13.3391 14.5297 13.3391 14.5016 13.3391 14.3586V8.90234L10.6437 15.7367H10.2805L7.14453 8.90234V13.4844C7.11641 13.6766 7.18437 13.8711 7.32031 14.0094L8.58125 15.5352V15.7391H5V15.5352L6.26094 14.0094C6.32737 13.9408 6.37681 13.8575 6.4053 13.7664C6.43379 13.6752 6.44054 13.5786 6.425 13.4844V8.1875C6.44141 8.03984 6.38516 7.89687 6.27266 7.79609L5.15234 6.44609V6.24219H8.63281L11.3187 12.1367L13.6836 6.24688H17V6.44609Z" fill="#D5D7D9"/>
</svg>
