<svg width="20" height="15" viewBox="0 0 20 15" fill="none" xmlns="http://www.w3.org/2000/svg">
<path fill-rule="evenodd" clip-rule="evenodd" d="M14.7729 14.982C14.7729 14.982 14.156 14.2077 13.6418 13.5414C15.8869 12.8752 16.7438 11.4166 16.7438 11.4166C16.0411 11.9028 15.3728 12.2449 14.7729 12.479C13.916 12.8572 13.0934 13.0913 12.2879 13.2533C10.6427 13.5774 9.13453 13.4874 7.84919 13.2353C6.87232 13.0372 6.03256 12.7671 5.32991 12.461C4.93573 12.2989 4.50728 12.1009 4.07883 11.8488C4.05313 11.8308 4.02742 11.8173 4.00171 11.8038C3.97601 11.7903 3.95029 11.7767 3.92459 11.7587C3.9115 11.7519 3.90091 11.745 3.89186 11.7391C3.87723 11.7296 3.86663 11.7227 3.85604 11.7227C3.54756 11.5427 3.37618 11.4166 3.37618 11.4166C3.37618 11.4166 4.1988 12.8392 6.37532 13.5234C5.86118 14.2077 5.22708 15 5.22708 15C1.43959 14.874 0 12.2809 0 12.2809C0 6.5367 2.46787 1.87288 2.46787 1.87288C4.93573 -0.0538678 7.26649 0.000152295 7.26649 0.000152295L7.43787 0.216238C4.35304 1.13459 2.94773 2.55715 2.94773 2.55715C2.94773 2.55715 3.32476 2.34106 3.95887 2.05295C5.79263 1.20662 7.24936 0.99054 7.84919 0.918512L7.88762 0.911684C7.97406 0.89622 8.05078 0.882496 8.14053 0.882496C9.18595 0.73844 10.3685 0.702426 11.6024 0.846483C13.2305 1.04456 14.9786 1.54876 16.7609 2.55715C16.7609 2.55715 15.407 1.20662 12.4936 0.288266L12.7335 0.000152295C12.7335 0.000152295 15.0814 -0.0538678 17.5321 1.87288C17.5321 1.87288 20 6.5367 20 12.2809C20 12.2809 19.9989 12.282 19.9965 12.2855L19.9879 12.299C19.8421 12.5289 18.3612 14.8626 14.7729 14.982ZM11.3111 8.62553C11.3111 7.52711 12.0823 6.64476 13.0591 6.64476C14.0189 6.64476 14.8072 7.52711 14.8072 8.62553C14.8072 9.72396 14.036 10.6063 13.0591 10.6063C12.0994 10.6063 11.3111 9.72396 11.3111 8.62553ZM5.05572 8.62553C5.05572 7.52711 5.82692 6.64476 6.80379 6.64476C7.78065 6.64476 8.569 7.52711 8.55186 8.62553C8.55186 9.72396 7.78065 10.6063 6.80379 10.6063C5.84406 10.6063 5.05572 9.72396 5.05572 8.62553Z" fill="#D5D7D9"/>
</svg>
