<svg width="22" height="22" viewBox="0 0 22 22" fill="none" xmlns="http://www.w3.org/2000/svg">
<path d="M10.9906 0.788209C5.19453 0.785865 0.5 5.47805 0.5 11.2695C0.5 15.8491 3.43672 19.7421 7.52656 21.1718C8.07734 21.3101 7.99297 20.9187 7.99297 20.6515V18.8351C4.8125 19.2077 4.68359 17.1031 4.47031 16.7515C4.03906 16.0156 3.01953 15.8281 3.32422 15.4765C4.04844 15.1038 4.78672 15.5702 5.64219 16.8335C6.26094 17.7499 7.46797 17.5952 8.07969 17.4429C8.21328 16.8921 8.49922 16.3999 8.89297 16.0179C5.59766 15.4273 4.22422 13.4163 4.22422 11.0257C4.22422 9.86555 4.60625 8.79915 5.35625 7.93899C4.87812 6.52102 5.40078 5.30696 5.47109 5.12649C6.83281 5.00461 8.24844 6.10149 8.35859 6.18821C9.13203 5.97961 10.0156 5.86946 11.0047 5.86946C11.9984 5.86946 12.8844 5.9843 13.6648 6.19524C13.9297 5.99368 15.2422 5.05149 16.5078 5.16633C16.5758 5.3468 17.0867 6.53274 16.6367 7.93196C17.3961 8.79446 17.7828 9.87024 17.7828 11.0327C17.7828 13.4281 16.4 15.4413 13.0953 16.0226C13.3784 16.3009 13.6031 16.6329 13.7564 16.9991C13.9098 17.3653 13.9886 17.7584 13.9883 18.1554V20.7921C14.007 21.003 13.9883 21.2116 14.3398 21.2116C18.4906 19.8124 21.4789 15.8913 21.4789 11.2718C21.4789 5.47805 16.782 0.788209 10.9906 0.788209Z" fill="#575859"/>
</svg>
