<svg width="22" height="18" viewBox="0 0 22 18" fill="none" xmlns="http://www.w3.org/2000/svg">
<path d="M20.75 0.75H1.25C0.835156 0.75 0.5 1.08516 0.5 1.5V16.5C0.5 16.9148 0.835156 17.25 1.25 17.25H20.75C21.1648 17.25 21.5 16.9148 21.5 16.5V1.5C21.5 1.08516 21.1648 0.75 20.75 0.75ZM18.8563 3.30234L11.4617 9.05625C11.2789 9.19922 11.0234 9.19922 10.8406 9.05625L3.44375 3.30234C3.41587 3.28082 3.39541 3.25112 3.38526 3.21739C3.37511 3.18367 3.37576 3.14761 3.38713 3.11427C3.3985 3.08094 3.42002 3.052 3.44867 3.0315C3.47731 3.01101 3.51165 2.99999 3.54688 3H18.7531C18.7883 2.99999 18.8227 3.01101 18.8513 3.0315C18.88 3.052 18.9015 3.08094 18.9129 3.11427C18.9242 3.14761 18.9249 3.18367 18.9147 3.21739C18.9046 3.25112 18.8841 3.28082 18.8563 3.30234Z" fill="#D5D7D9"/>
</svg>
