<svg width="22" height="22" viewBox="0 0 22 22" fill="none" xmlns="http://www.w3.org/2000/svg">
<path d="M10.9906 0.788087C5.19453 0.785743 0.5 5.47793 0.5 11.2693C0.5 15.849 3.43672 19.742 7.52656 21.1717C8.07734 21.31 7.99297 20.9186 7.99297 20.6514V18.835C4.8125 19.2076 4.68359 17.1029 4.47031 16.7514C4.03906 16.0154 3.01953 15.8279 3.32422 15.4764C4.04844 15.1037 4.78672 15.5701 5.64219 16.8334C6.26094 17.7498 7.46797 17.5951 8.07969 17.4428C8.21328 16.892 8.49922 16.3998 8.89297 16.0178C5.59766 15.4271 4.22422 13.4162 4.22422 11.0256C4.22422 9.86543 4.60625 8.79902 5.35625 7.93887C4.87812 6.5209 5.40078 5.30684 5.47109 5.12637C6.83281 5.00449 8.24844 6.10137 8.35859 6.18809C9.13203 5.97949 10.0156 5.86934 11.0047 5.86934C11.9984 5.86934 12.8844 5.98418 13.6648 6.19512C13.9297 5.99356 15.2422 5.05137 16.5078 5.16621C16.5758 5.34668 17.0867 6.53262 16.6367 7.93184C17.3961 8.79434 17.7828 9.87012 17.7828 11.0326C17.7828 13.4279 16.4 15.4412 13.0953 16.0225C13.3784 16.3008 13.6031 16.6328 13.7564 16.999C13.9098 17.3652 13.9886 17.7583 13.9883 18.1553V20.792C14.007 21.0029 13.9883 21.2115 14.3398 21.2115C18.4906 19.8123 21.4789 15.8912 21.4789 11.2717C21.4789 5.47793 16.782 0.788087 10.9906 0.788087Z" fill="#D5D7D9"/>
</svg>
